<?xml version="1.0" standalone="no"?>
<!DOCTYPE svg PUBLIC "-//W3C//DTD SVG 20010904//EN"
 "http://www.w3.org/TR/2001/REC-SVG-20010904/DTD/svg10.dtd">
<svg version="1.0" xmlns="http://www.w3.org/2000/svg"
 width="512.000000pt" height="512.000000pt" viewBox="0 0 512.000000 512.000000"
 preserveAspectRatio="xMidYMid meet">
<metadata>
Created by potrace 1.11, written by Peter Selinger 2001-2013
</metadata>
<g transform="translate(0.000000,512.000000) scale(0.100000,-0.100000)"
fill="#000000" stroke="none">
<path d="M0 2560 l0 -2560 2560 0 2560 0 0 2560 0 2560 -2560 0 -2560 0 0
-2560z m2785 2081 c72 -11 184 -31 250 -46 141 -32 515 -153 521 -169 3 -9
-343 -656 -360 -673 -2 -2 -32 12 -67 31 -81 44 -213 90 -305 106 -106 19
-366 8 -469 -19 -155 -41 -249 -112 -302 -227 -22 -49 -25 -66 -21 -138 13
-233 210 -397 728 -606 463 -186 699 -297 855 -401 242 -162 395 -354 474
-597 100 -305 99 -583 -3 -799 -103 -217 -304 -408 -549 -523 -289 -135 -690
-210 -985 -182 -345 32 -761 173 -1055 358 l-57 36 17 23 c70 94 460 574 466
574 5 1 29 -13 53 -30 109 -74 325 -157 484 -185 124 -21 330 -14 445 15 224
58 355 185 355 346 0 61 -22 150 -51 208 -12 23 -50 70 -85 104 -84 83 -226
151 -561 272 -583 210 -836 351 -1069 592 -185 193 -291 388 -344 639 -29 134
-25 342 10 460 84 290 280 519 579 674 294 152 681 210 1046 157z"/>
</g>
</svg>
