<?xml version="1.0" encoding="utf-8"?>
<!-- Generator: Adobe Illustrator 19.2.1, SVG Export Plug-In . SVG Version: 6.00 Build 0)  -->
<svg version="1.1" id="Layer_1" xmlns="http://www.w3.org/2000/svg" xmlns:xlink="http://www.w3.org/1999/xlink" x="0px" y="0px"
	 viewBox="0 0 453.5 453.5" style="enable-background:new 0 0 453.5 453.5;" xml:space="preserve">
<style type="text/css">
	.st0{fill:#EDF7F2;}
	.st1{fill:none;}
</style>
<g id="Bus">
	<path class="st0" d="M367.5,92.1c-4.2-21-17.7-29.5-37.9-37.9C309.7,45.9,262,36,226.8,35.7c-35.2,0.3-83,10.2-102.9,18.5
		C103.7,62.7,90.2,71.1,86,92.1L70.9,208.8v160.8H97v25.2c0,30.7,45,30.7,45,0v-25.2h83h0.3h86.3v25.2c0,30.7,45,30.7,45,0v-25.2
		h26.1V208.8L367.5,92.1z M162.6,65.2h62.6h65.7c12.6,0,12.6,18.9,0,18.9h-65.8h-62.5C150,84.1,150,65.2,162.6,65.2z M119.5,319.2
		c-11.9,0-21.6-9.7-21.6-21.6s9.7-21.6,21.6-21.6s21.6,9.7,21.6,21.6S131.4,319.2,119.5,319.2z M225.3,221.1H110.8
		c-11.2,0-13.6-8.1-12.5-16.2l11.8-84.6c1.6-10.3,5.1-17.1,18.4-17.1h96.5H325c13.3,0,16.8,6.8,18.4,17.1l11.8,84.6
		c1.1,8.1-1.2,16.2-12.5,16.2H225.3z M334.1,319.2c-11.9,0-21.6-9.7-21.6-21.6s9.7-21.6,21.6-21.6s21.6,9.7,21.6,21.6
		S346,319.2,334.1,319.2z"/>
	<rect y="0" class="st1" width="453.5" height="453.5"/>
</g>
</svg>
